<svg xmlns="http://www.w3.org/2000/svg" xmlns:xlink="http://www.w3.org/1999/xlink" version="1.1" width="256" height="256" viewBox="0 0 256 256" xml:space="preserve">
<g style="stroke: none; stroke-width: 0; stroke-dasharray: none; stroke-linecap: butt; stroke-linejoin: miter; stroke-miterlimit: 10; fill: none; fill-rule: nonzero; opacity: 1;" transform="translate(1.4065934065934016 1.4065934065934016) scale(2.81 2.81)">
	<path d="M 9.313 21.023 c 4.591 0 8.314 -3.722 8.314 -8.314 V 8.913 c 0 -4.591 -3.722 -8.314 -8.314 -8.314 C 4.722 0.599 1 4.322 1 8.913 v 3.797 C 1 17.301 4.722 21.023 9.313 21.023 z" style="stroke: none; stroke-width: 1; stroke-dasharray: none; stroke-linecap: butt; stroke-linejoin: miter; stroke-miterlimit: 10; fill: rgb(29,209,161); fill-rule: nonzero; opacity: 1;" transform=" matrix(1 0 0 1 0 0) " stroke-linecap="round"/>
	<path d="M 80.687 21.023 c 4.591 0 8.314 -3.722 8.314 -8.314 V 8.913 c 0 -4.591 -3.722 -8.314 -8.314 -8.314 c -4.591 0 -8.314 3.722 -8.314 8.314 v 3.797 C 72.373 17.301 76.095 21.023 80.687 21.023 z" style="stroke: none; stroke-width: 1; stroke-dasharray: none; stroke-linecap: butt; stroke-linejoin: miter; stroke-miterlimit: 10; fill: rgb(29,209,161); fill-rule: nonzero; opacity: 1;" transform=" matrix(1 0 0 1 0 0) " stroke-linecap="round"/>
	<path d="M 34.658 60.79 c -0.656 -3.255 -3.516 -5.597 -6.837 -5.597 h -8.499 l -7.664 0.503 c -0.054 0.005 -0.107 0.008 -0.16 0.008 c -0.776 0 -1.442 -0.587 -1.524 -1.376 c -0.087 -0.842 0.525 -1.596 1.368 -1.684 l 7.981 -0.827 v -5.81 l -9.126 -9.392 c -0.591 -0.608 -0.577 -1.579 0.031 -2.169 c 0.608 -0.589 1.579 -0.576 2.169 0.031 l 9.065 9.329 h 16.147 v -3.44 c 0 -1.25 -0.896 -2.319 -2.126 -2.538 l -11.363 -2.02 l -5.856 -8.52 l 0 -0.004 c -1.763 -3.702 -5.538 -6.261 -9.911 -6.261 h 0 c -4.266 0 -7.724 3.458 -7.724 7.725 v 25.249 c 0 8.575 6.952 15.527 15.527 15.527 h 3.169 h 5.356 c 1.375 0 2.564 0.961 2.851 2.306 l 3.12 14.611 C 31.092 88.517 32.926 90 35.048 90 c 2.841 0 4.971 -2.602 4.41 -5.387 L 34.658 60.79 z" style="stroke: none; stroke-width: 1; stroke-dasharray: none; stroke-linecap: butt; stroke-linejoin: miter; stroke-miterlimit: 10; fill: rgb(29,209,161); fill-rule: nonzero; opacity: 1;" transform=" matrix(1 0 0 1 0 0) " stroke-linecap="round"/>
	<path d="M 81.649 21.023 L 81.649 21.023 c -4.373 0 -8.149 2.559 -9.911 6.261 l 0 0.004 l -5.856 8.52 l -11.363 2.02 c -1.23 0.219 -2.126 1.288 -2.126 2.538 v 3.44 h 16.146 l 9.065 -9.329 c 0.59 -0.608 1.564 -0.621 2.169 -0.031 c 0.608 0.59 0.622 1.562 0.032 2.169 l -9.127 9.393 v 5.817 l 7.664 0.821 c 0.842 0.09 1.452 0.846 1.361 1.689 c -0.084 0.786 -0.749 1.37 -1.523 1.37 c -0.055 0 -0.11 -0.003 -0.166 -0.009 l -7.336 -0.502 h -8.499 c -3.321 0 -6.181 2.341 -6.837 5.597 l -4.8 23.823 C 49.981 87.398 52.11 90 54.952 90 c 2.122 0 3.956 -1.483 4.399 -3.559 l 3.12 -14.611 c 0.287 -1.345 1.475 -2.306 2.851 -2.306 h 5.356 h 3.169 c 8.575 0 15.527 -6.952 15.527 -15.527 V 28.748 C 89.374 24.482 85.915 21.023 81.649 21.023 z" style="stroke: none; stroke-width: 1; stroke-dasharray: none; stroke-linecap: butt; stroke-linejoin: miter; stroke-miterlimit: 10; fill: rgb(29,209,161); fill-rule: nonzero; opacity: 1;" transform=" matrix(1 0 0 1 0 0) " stroke-linecap="round"/>
	<path d="M 41.108 40.366 v 3.44 h 7.785 v -3.44 c 0 -2.951 2.108 -5.468 5.014 -5.984 l 2.405 -0.428 v -2.559 c 0 -6.059 -4.912 -10.971 -10.971 -10.971 c 4.591 0 8.313 -3.722 8.313 -8.313 V 8.314 C 53.654 3.722 49.932 0 45.34 0 h 0 c -4.591 0 -8.314 3.722 -8.314 8.314 v 3.797 c 0 4.591 3.722 8.313 8.314 8.313 c -6.059 0 -10.971 4.912 -10.971 10.971 v 2.68 l 1.725 0.307 C 39 34.898 41.108 37.415 41.108 40.366 z" style="stroke: none; stroke-width: 1; stroke-dasharray: none; stroke-linecap: butt; stroke-linejoin: miter; stroke-miterlimit: 10; fill: rgb(29,209,161); fill-rule: nonzero; opacity: 1;" transform=" matrix(1 0 0 1 0 0) " stroke-linecap="round"/>
	<polygon points="67.18,51.69 67.18,47.31 22.82,47.31 22.82,51.69 43.34,51.69 43.34,80.4 46.66,80.4 46.66,51.69 46.97,51.69 " style="stroke: none; stroke-width: 1; stroke-dasharray: none; stroke-linecap: butt; stroke-linejoin: miter; stroke-miterlimit: 10; fill: rgb(29,209,161); fill-rule: nonzero; opacity: 1;" transform="  matrix(1 0 0 1 0 0) "/>
</g>
</svg>