<svg xmlns="http://www.w3.org/2000/svg" xmlns:xlink="http://www.w3.org/1999/xlink" version="1.1" width="256" height="256" viewBox="0 0 256 256" xml:space="preserve">
<g style="stroke: none; stroke-width: 0; stroke-dasharray: none; stroke-linecap: butt; stroke-linejoin: miter; stroke-miterlimit: 10; fill: none; fill-rule: nonzero; opacity: 1;" transform="translate(1.4065934065934016 1.4065934065934016) scale(2.81 2.81)">
	<path d="M 40.718 25.744 c -2.018 -3.394 -5.236 -5.798 -9.063 -6.771 c -1.217 -0.309 -2.439 -0.458 -3.641 -0.458 c -6.599 0 -12.628 4.459 -14.327 11.141 C 12.133 35.77 14.63 42.201 19.9 45.66 c 1.367 0.897 2.871 1.558 4.471 1.964 c 7.903 2.009 15.96 -2.785 17.968 -10.683 C 43.312 33.113 42.736 29.137 40.718 25.744 z M 24.454 28.98 c 0.301 -1.185 1.507 -1.902 2.692 -1.601 c 1.186 0.301 1.902 1.507 1.601 2.692 c -0.301 1.185 -1.507 1.902 -2.692 1.601 C 24.869 31.371 24.153 30.166 24.454 28.98 z M 34.734 39.735 c -1.311 1.606 -3.278 2.507 -5.3 2.507 c -0.556 0 -1.117 -0.068 -1.669 -0.209 c -2.664 -0.678 -4.653 -2.871 -5.067 -5.588 c -0.148 -0.967 0.517 -1.871 1.485 -2.019 c 0.97 -0.148 1.872 0.518 2.019 1.485 c 0.199 1.307 1.156 2.362 2.436 2.687 c 1.232 0.312 2.547 -0.121 3.351 -1.105 c 0.619 -0.758 1.736 -0.871 2.493 -0.251 C 35.241 37.861 35.354 38.977 34.734 39.735 z M 36.908 32.146 c -0.301 1.185 -1.507 1.902 -2.692 1.601 c -1.185 -0.301 -1.902 -1.507 -1.601 -2.692 c 0.301 -1.185 1.507 -1.902 2.692 -1.601 C 36.492 29.755 37.209 30.961 36.908 32.146 z" style="stroke: none; stroke-width: 1; stroke-dasharray: none; stroke-linecap: butt; stroke-linejoin: miter; stroke-miterlimit: 10; fill: rgb(72,217,178); fill-rule: nonzero; opacity: 1;" transform=" matrix(1 0 0 1 0 0) " stroke-linecap="round"/>
	<path d="M 76.308 29.656 c -0.972 -3.827 -3.377 -7.045 -6.771 -9.063 c -3.393 -2.017 -7.369 -2.596 -11.196 -1.62 C 50.441 20.98 45.649 29.041 47.656 36.94 c 2.009 7.899 10.07 12.693 17.967 10.683 c 1.602 -0.406 3.105 -1.068 4.472 -1.964 C 75.366 42.201 77.862 35.77 76.308 29.656 z M 62.839 27.467 c 1.171 -0.298 2.362 0.41 2.66 1.582 c 0.298 1.171 -0.41 2.363 -1.582 2.66 c -1.171 0.298 -2.362 -0.41 -2.66 -1.582 C 60.959 28.956 61.668 27.765 62.839 27.467 z M 53.193 32.178 c -0.298 -1.171 0.41 -2.362 1.582 -2.66 c 1.171 -0.298 2.362 0.41 2.66 1.582 c 0.298 1.171 -0.41 2.362 -1.582 2.66 C 54.682 34.057 53.491 33.349 53.193 32.178 z M 67.404 36.426 c -0.41 2.685 -2.375 4.853 -5.007 5.522 c -0.546 0.138 -1.101 0.206 -1.65 0.206 c -1.999 0 -3.941 -0.891 -5.237 -2.478 c -0.612 -0.749 -0.5 -1.853 0.249 -2.464 c 0.747 -0.612 1.851 -0.501 2.463 0.249 c 0.795 0.973 2.098 1.401 3.311 1.092 c 1.266 -0.322 2.21 -1.364 2.407 -2.655 c 0.146 -0.956 1.038 -1.61 1.996 -1.467 C 66.893 34.577 67.549 35.47 67.404 36.426 z" style="stroke: none; stroke-width: 1; stroke-dasharray: none; stroke-linecap: butt; stroke-linejoin: miter; stroke-miterlimit: 10; fill: rgb(72,217,178); fill-rule: nonzero; opacity: 1;" transform=" matrix(1 0 0 1 0 0) " stroke-linecap="round"/>
	<path d="M 84.258 47.766 c 2.123 0 3.85 1.727 3.85 3.85 c 0 1.201 -0.547 2.312 -1.501 3.049 c -0.677 0.524 -1.488 0.8 -2.349 0.8 c -2.123 0 -3.85 -1.727 -3.85 -3.85 S 82.135 47.766 84.258 47.766 z" style="stroke: none; stroke-width: 1; stroke-dasharray: none; stroke-linecap: butt; stroke-linejoin: miter; stroke-miterlimit: 10; fill: rgb(72,217,178); fill-rule: nonzero; opacity: 1;" transform=" matrix(1 0 0 1 0 0) " stroke-linecap="round"/>
	<path d="M 5.738 47.766 c 2.123 0 3.85 1.727 3.85 3.85 s -1.727 3.85 -3.85 3.85 c -0.722 0 -1.39 -0.212 -1.968 -0.559 c -0.087 -0.094 -0.172 -0.19 -0.274 -0.273 c -0.158 -0.128 -0.325 -0.233 -0.499 -0.321 c -0.684 -0.695 -1.109 -1.646 -1.109 -2.696 C 1.888 49.493 3.615 47.766 5.738 47.766 z" style="stroke: none; stroke-width: 1; stroke-dasharray: none; stroke-linecap: butt; stroke-linejoin: miter; stroke-miterlimit: 10; fill: rgb(72,217,178); fill-rule: nonzero; opacity: 1;" transform=" matrix(1 0 0 1 0 0) " stroke-linecap="round"/>
	<path d="M 4.281 59.669 c 0.798 0.295 1.657 0.464 2.556 0.464 c 4.09 0 7.417 -3.328 7.417 -7.417 c 0 -0.463 -0.048 -0.915 -0.13 -1.355 c 1.359 -0.634 2.778 -1.127 4.231 -1.503 c 1.539 0.897 3.189 1.587 4.932 2.03 c 1.58 0.402 3.163 0.593 4.724 0.593 c 2.355 0 4.648 -0.452 6.789 -1.266 c 2.734 1.274 5.242 3.065 7.362 5.262 c -3.213 4.326 -5.219 9.498 -5.64 15.013 H 0 C 0.382 67.252 1.862 63.164 4.281 59.669 z" style="stroke: none; stroke-width: 1; stroke-dasharray: none; stroke-linecap: butt; stroke-linejoin: miter; stroke-miterlimit: 10; fill: rgb(72,217,178); fill-rule: nonzero; opacity: 1;" transform=" matrix(1 0 0 1 0 0) " stroke-linecap="round"/>
	<path d="M 40.942 71.49 c 0.816 -8.633 6.378 -16.485 14.409 -20.214 c 2.097 0.777 4.336 1.205 6.633 1.205 c 1.56 0 3.144 -0.191 4.723 -0.593 c 1.741 -0.443 3.389 -1.131 4.926 -2.026 c 1.081 0.279 2.152 0.613 3.184 1.035 c 0.353 0.145 0.703 0.307 1.053 0.47 c -0.081 0.438 -0.129 0.887 -0.129 1.348 c 0 4.089 3.328 7.417 7.417 7.417 c 0.889 0 1.748 -0.166 2.559 -0.465 c 2.452 3.522 3.911 7.549 4.283 11.822 H 40.942 z" style="stroke: none; stroke-width: 1; stroke-dasharray: none; stroke-linecap: butt; stroke-linejoin: miter; stroke-miterlimit: 10; fill: rgb(72,217,178); fill-rule: nonzero; opacity: 1;" transform=" matrix(1 0 0 1 0 0) " stroke-linecap="round"/>
</g>
</svg>