<svg xmlns="http://www.w3.org/2000/svg" xmlns:xlink="http://www.w3.org/1999/xlink" version="1.1" width="256" height="256" viewBox="0 0 256 256" xml:space="preserve">
<g style="stroke: none; stroke-width: 0; stroke-dasharray: none; stroke-linecap: butt; stroke-linejoin: miter; stroke-miterlimit: 10; fill: none; fill-rule: nonzero; opacity: 1;" transform="translate(45.02412451361867 45.02412451361867) scale(1.83 1.83)">
	<path d="M 68.387 53.898 l 9.54 -5.415 l -7.983 -25.775 c -6.433 -2.943 -16.794 -4.854 -26.166 -4.492 c -8.99 0 -22.166 15.592 -20.208 21.581 c 3.244 2.571 8.264 2.922 14.729 -3.956 c 2.187 0.215 5.521 -1.238 7.267 -2.436 l 5.041 3.687 l 0 0 L 68.387 53.898 z" style="stroke: none; stroke-width: 1; stroke-dasharray: none; stroke-linecap: butt; stroke-linejoin: miter; stroke-miterlimit: 10; fill: rgb(29,209,161); fill-rule: nonzero; opacity: 1;" transform=" matrix(1 0 0 1 0 0) " stroke-linecap="round"/>
	<path d="M 0 17.167 v 30.541 h 8.169 l 8.644 -27.91 C 10.508 18.439 5.045 17.584 0 17.167 z" style="stroke: none; stroke-width: 1; stroke-dasharray: none; stroke-linecap: butt; stroke-linejoin: miter; stroke-miterlimit: 10; fill: rgb(29,209,161); fill-rule: nonzero; opacity: 1;" transform=" matrix(1 0 0 1 0 0) " stroke-linecap="round"/>
	<path d="M 73.184 19.798 l 8.645 27.91 H 90 V 17.167 C 84.955 17.584 79.491 18.439 73.184 19.798 z" style="stroke: none; stroke-width: 1; stroke-dasharray: none; stroke-linecap: butt; stroke-linejoin: miter; stroke-miterlimit: 10; fill: rgb(29,209,161); fill-rule: nonzero; opacity: 1;" transform=" matrix(1 0 0 1 0 0) " stroke-linecap="round"/>
	<path d="M 67.787 58.847 l -19.749 -18.67 l -2.765 -2.021 c -1.521 0.723 -3.386 1.398 -5.235 1.63 c -9.29 8.987 -16.304 5.256 -18.958 3.152 l -0.945 -0.749 l -0.376 -1.146 c -1.477 -4.517 1.442 -9.919 4.15 -13.656 c 1.353 -1.866 2.973 -3.731 4.755 -5.454 h -8.371 l -7.8 25.183 C 26.07 63.042 39.7 77.365 48.139 70.695 l 0.855 0.866 c 1.662 1.681 4.397 1.698 6.078 0.038 s 1.698 -4.397 0.038 -6.078 l 2.58 2.612 c 1.662 1.681 4.397 1.698 6.078 0.038 c 1.681 -1.661 1.698 -4.397 0.038 -6.078 l 0.263 0.293 c 1.662 1.681 4.658 1.943 6.34 0.283 c 1.522 -1.504 1.666 -3.878 0.451 -5.564 L 67.787 58.847 z" style="stroke: none; stroke-width: 1; stroke-dasharray: none; stroke-linecap: butt; stroke-linejoin: miter; stroke-miterlimit: 10; fill: rgb(29,209,161); fill-rule: nonzero; opacity: 1;" transform=" matrix(1 0 0 1 0 0) " stroke-linecap="round"/>
</g>
</svg>