<svg xmlns="http://www.w3.org/2000/svg" xmlns:xlink="http://www.w3.org/1999/xlink" version="1.1" width="256" height="256" viewBox="0 0 256 256" xml:space="preserve">
<g style="stroke: none; stroke-width: 0; stroke-dasharray: none; stroke-linecap: butt; stroke-linejoin: miter; stroke-miterlimit: 10; fill: none; fill-rule: nonzero; opacity: 1;" transform="translate(1.4065934065934016 1.4065934065934016) scale(2.81 2.81)">
	<path d="M 34.699 44.845 v 9.415 c 0 1 0.81 1.81 1.81 1.81 h 11.988 c 1 0 1.81 -0.81 1.81 -1.81 v -9.415 H 34.699 z" style="stroke: none; stroke-width: 1; stroke-dasharray: none; stroke-linecap: butt; stroke-linejoin: miter; stroke-miterlimit: 10; fill: rgb(29,209,161); fill-rule: nonzero; opacity: 1;" transform=" matrix(1 0 0 1 0 0) " stroke-linecap="round"/>
	<path d="M 80.499 57.534 c -0.393 -1.919 -7.407 -6.956 -7.512 -12.048 c -0.14 -10.682 -1.814 -17.238 -4.961 -22.536 c -0.503 -0.78 -1.071 -1.508 -1.667 -2.212 c -0.274 7.061 -3.591 13.551 -9.211 17.918 c -1.722 1.337 -2.75 3.474 -2.75 5.716 v 9.889 c 0 1.729 -0.747 3.286 -1.936 4.367 v 1.783 c 0 4.063 -3.305 7.369 -7.368 7.369 h -5.183 c -4.062 0 -7.368 -3.306 -7.368 -7.369 v -1.783 c -1.189 -1.081 -1.936 -2.638 -1.936 -4.367 v -9.887 c 0 -2.251 -1.063 -4.383 -2.916 -5.849 c -5.582 -4.417 -8.857 -11.058 -9.05 -18.106 c -0.675 0.642 -1.331 1.302 -1.943 2.003 c -4.449 5.096 -7.224 11.705 -7.224 20.187 c 0.387 10.744 4.925 24.753 14.186 30.375 c 2.144 1.324 -0.777 9.696 -4.03 17.017 h 31.061 c 2.083 -4.974 5.552 -9.573 8.12 -8.796 c 10.232 1.265 12.758 0.509 14.882 -1.984 c 1.216 -1.682 0.906 -3.981 0 -6.52 c -0.335 -1.09 0.652 -3.764 1.605 -4.868 c -0.695 -2.554 -0.864 -6.86 0.804 -7.038 C 78.099 60.526 80.819 58.966 80.499 57.534 z" style="stroke: none; stroke-width: 1; stroke-dasharray: none; stroke-linecap: butt; stroke-linejoin: miter; stroke-miterlimit: 10; fill: rgb(29,209,161); fill-rule: nonzero; opacity: 1;" transform=" matrix(1 0 0 1 0 0) " stroke-linecap="round"/>
	<path d="M 36.635 60.161 v 0.249 c 0 1.81 1.467 3.277 3.277 3.277 h 5.183 c 1.81 0 3.277 -1.467 3.277 -3.277 v -0.249 H 36.635 z" style="stroke: none; stroke-width: 1; stroke-dasharray: none; stroke-linecap: butt; stroke-linejoin: miter; stroke-miterlimit: 10; fill: rgb(29,209,161); fill-rule: nonzero; opacity: 1;" transform=" matrix(1 0 0 1 0 0) " stroke-linecap="round"/>
	<path d="M 41.226 0.04 c -9.788 0.615 -17.773 8.533 -18.463 18.315 c -0.485 6.873 2.542 13.063 7.468 16.961 c 1.803 1.427 3.135 3.319 3.857 5.438 h 6.371 V 27.775 l -6.348 -6.348 c -0.799 -0.799 -0.799 -2.094 0 -2.892 c 0.798 -0.799 2.094 -0.799 2.892 0 l 5.501 5.5 l 5.501 -5.5 c 0.799 -0.799 2.093 -0.799 2.892 0 c 0.799 0.799 0.799 2.094 0 2.892 l -6.348 6.348 v 12.979 h 6.35 c 0.691 -2.084 1.966 -3.952 3.738 -5.329 c 4.659 -3.62 7.657 -9.276 7.657 -15.634 C 62.295 8.438 52.735 -0.683 41.226 0.04 z" style="stroke: none; stroke-width: 1; stroke-dasharray: none; stroke-linecap: butt; stroke-linejoin: miter; stroke-miterlimit: 10; fill: rgb(29,209,161); fill-rule: nonzero; opacity: 1;" transform=" matrix(1 0 0 1 0 0) " stroke-linecap="round"/>
</g>
</svg>