<svg xmlns="http://www.w3.org/2000/svg" xmlns:xlink="http://www.w3.org/1999/xlink" version="1.1" width="256" height="256" viewBox="0 0 256 256" xml:space="preserve">
<g style="stroke: none; stroke-width: 0; stroke-dasharray: none; stroke-linecap: butt; stroke-linejoin: miter; stroke-miterlimit: 10; fill: none; fill-rule: nonzero; opacity: 1;" transform="translate(27.094163424124503 27.094163424124503) scale(2.23 2.23)">
	<path d="M 2.664 18.361 v 67.338 C 2.664 88.07 4.593 90 6.965 90 h 76.07 c 2.371 0 4.301 -1.93 4.301 -4.301 V 18.361 H 2.664 z M 48.387 76.774 c 0 2.694 -2.191 4.886 -4.886 4.886 H 13.958 c -2.694 0 -4.886 -2.191 -4.886 -4.886 V 60.546 c 0 -2.694 2.192 -4.887 4.886 -4.887 h 29.542 c 2.694 0 4.886 2.192 4.886 4.887 V 76.774 z M 48.387 43.772 c 0 2.694 -2.191 4.886 -4.886 4.886 H 13.958 c -2.694 0 -4.886 -2.191 -4.886 -4.886 V 27.543 c 0 -2.694 2.192 -4.886 4.886 -4.886 h 29.542 c 2.694 0 4.886 2.192 4.886 4.886 V 43.772 z M 69.155 81.66 H 53.827 c -1.104 0 -2 -0.896 -2 -2 s 0.896 -2 2 -2 h 15.328 c 1.104 0 2 0.896 2 2 S 70.26 81.66 69.155 81.66 z M 78.928 74.327 H 53.827 c -1.104 0 -2 -0.896 -2 -2 s 0.896 -2 2 -2 h 25.101 c 1.104 0 2 0.896 2 2 S 80.032 74.327 78.928 74.327 z M 78.928 66.993 H 53.827 c -1.104 0 -2 -0.896 -2 -2 s 0.896 -2 2 -2 h 25.101 c 1.104 0 2 0.896 2 2 S 80.032 66.993 78.928 66.993 z M 78.928 59.659 H 53.827 c -1.104 0 -2 -0.896 -2 -2 s 0.896 -2 2 -2 h 25.101 c 1.104 0 2 0.896 2 2 S 80.032 59.659 78.928 59.659 z M 51.827 46.658 c 0 -1.104 0.896 -2 2 -2 h 15.328 c 1.104 0 2 0.896 2 2 s -0.896 2 -2 2 H 53.827 C 52.723 48.658 51.827 47.763 51.827 46.658 z M 78.928 41.325 H 53.827 c -1.104 0 -2 -0.896 -2 -2 s 0.896 -2 2 -2 h 25.101 c 1.104 0 2 0.896 2 2 S 80.032 41.325 78.928 41.325 z M 78.928 33.991 H 53.827 c -1.104 0 -2 -0.896 -2 -2 s 0.896 -2 2 -2 h 25.101 c 1.104 0 2 0.896 2 2 S 80.032 33.991 78.928 33.991 z M 78.928 26.657 H 53.827 c -1.104 0 -2 -0.896 -2 -2 s 0.896 -2 2 -2 h 25.101 c 1.104 0 2 0.896 2 2 S 80.032 26.657 78.928 26.657 z" style="stroke: none; stroke-width: 1; stroke-dasharray: none; stroke-linecap: butt; stroke-linejoin: miter; stroke-miterlimit: 10; fill: rgb(29,209,161); fill-rule: nonzero; opacity: 1;" transform=" matrix(1 0 0 1 0 0) " stroke-linecap="round"/>
	<path d="M 87.336 14.361 V 4.301 c 0 -2.372 -1.93 -4.301 -4.301 -4.301 H 6.965 C 4.593 0 2.664 1.929 2.664 4.301 v 10.06 H 87.336 z M 76.079 6.688 h 2.849 c 1.104 0 2 0.896 2 2 s -0.896 2 -2 2 h -2.849 c -1.104 0 -2 -0.896 -2 -2 S 74.975 6.688 76.079 6.688 z M 39.296 6.688 h 29.838 c 1.104 0 2 0.896 2 2 s -0.896 2 -2 2 H 39.296 c -1.104 0 -2 -0.896 -2 -2 S 38.192 6.688 39.296 6.688 z M 27.468 6.688 h 2.849 c 1.104 0 2 0.896 2 2 s -0.896 2 -2 2 h -2.849 c -1.104 0 -2 -0.896 -2 -2 S 26.364 6.688 27.468 6.688 z M 18.932 6.688 h 2.849 c 1.104 0 2 0.896 2 2 s -0.896 2 -2 2 h -2.849 c -1.104 0 -2 -0.896 -2 -2 S 17.827 6.688 18.932 6.688 z M 10.395 6.688 h 2.849 c 1.104 0 2 0.896 2 2 s -0.896 2 -2 2 h -2.849 c -1.104 0 -2 -0.896 -2 -2 S 9.291 6.688 10.395 6.688 z" style="stroke: none; stroke-width: 1; stroke-dasharray: none; stroke-linecap: butt; stroke-linejoin: miter; stroke-miterlimit: 10; fill: rgb(29,209,161); fill-rule: nonzero; opacity: 1;" transform=" matrix(1 0 0 1 0 0) " stroke-linecap="round"/>
</g>
</svg>